<?xml version="1.0" encoding="UTF-8"?>
<!-- Created with Inkscape by VulcanSphere (http://www.inkscape.org/ and https://en.wikipedia.org/wiki/User:VulcanSphere) -->
<svg id="svg1" width="287.87" height="71.21" version="1.1" viewBox="0 0 287.87 71.21" xmlns="http://www.w3.org/2000/svg">
<title id="title1">Sakomoto Days</title>
<desc id="desc1">Comedy manga by Yuto Suzuki</desc>
<g id="g1" transform="translate(-3.0973 221.97)">
  <g id="g3">
   <g id="g4" fill="#be002d">
    <path id="path1" d="m113.13-187.94-0.12153-14.421c-0.0452-5.3686-0.2072-15.651 1.6263-17.119 2.3213-1.8588 3.2069-2.1476 14.066-2.1511 12.686-4e-3 12.852 0.0201 14.794 1.7947 1.9938 1.822 2.0644 2.9187 2.0797 14.186 0.0153 11.267-0.018 13.307-0.0735 17.664-4.8037-0.0281-8.5819-0.0624-13.414-0.11342-0.0577-4.2614-0.0656-14.414-0.34637-14.65-0.27907-0.23535-2.6219-0.23535-2.6219-0.23535-0.0434 0-2.5303-0.0805-2.7908 0.20698-0.2605 0.28751-0.22564 9.8093-0.1804 14.701zm18.8-18.862-0.0287-5.3902-5.4803-0.0352-7e-3 5.4905z"/>
    <path id="path2" d="m40.325-187.94-0.12153-14.421c-0.04524-5.3686-0.2072-15.651 1.6263-17.119 2.3213-1.8588 3.2069-2.1476 14.066-2.1511 12.686-4e-3 12.852 0.0201 14.794 1.7947 1.9938 1.822 2.0644 2.9187 2.0797 14.186 0.0153 11.267-0.018 13.307-0.0735 17.664-4.8037-0.0281-8.5819-0.0624-13.414-0.11342-0.0577-4.2614-0.0656-14.414-0.34637-14.65-0.27907-0.23535-2.6219-0.23535-2.6219-0.23535-0.0434 0-2.5303-0.0805-2.7908 0.20698-0.2605 0.28751-0.22564 9.8093-0.1804 14.701zm18.8-18.862-0.0287-5.3902-5.4803-0.0352-7e-3 5.4905z"/>
    <path id="path3" d="m3.3107-187.93c-0.11733-0.11733-0.21333-2.1333-0.21333-4.48v-4.2667h8.7627c8.4936 0 8.7678-0.0197 8.93-0.64 0.42255-1.6158 0.08208-1.812-3.5275-2.0329-1.8616-0.1139-5.7287-0.20709-8.5934-0.20709-4.6923 0-5.223-0.0555-5.3531-0.56-0.079441-0.308-0.12515-4.16-0.10156-8.56 0.038636-7.209 0.10396-8.1231 0.66073-9.2451 0.99371-1.4362 2.2137-2.6541 3.8343-3.357 1.7424-0.65191 2.3391-0.67791 15.56-0.67791h13.748v8.96h-17.216l-0.22444 2.72 17.421-0.1888 0.21919 0.87331c0.12055 0.48031 0.13052 4.4416 0.02214 8.8028-0.2406 9.6821-0.19111 9.531-4.0983 12.513-0.67382 0.51422-1.9144 0.56-15.175 0.56-7.9429 0-14.538-0.096-14.655-0.21333zm97.156-0.10666-7.4306-0.16-3.8588-3.82-0.04826 1.11c-0.02654 0.61049-0.01733 1.506 0.02047 1.99l0.06873 0.88h-13.807l0.16566-33.76 13.28-0.173v1.0865c0 0.59757 0.09234 1.5482 0.20519 2.1125l0.20519 1.026 3.9221-3.8872 7.914-0.0824c4.3527-0.0453 7.9139-9e-3 7.9138 0.08-1.1e-4 0.0893-3.7442 3.9042-8.3202 8.4777l-8.32 8.3154 8.3521 8.3566c6.3107 6.3141 8.2074 8.3873 7.76 8.4823-0.32564 0.0691-3.9358 0.0537-8.0227-0.0343zm98.311-0.15096c-3.5186-0.78195-5.4296-1.707-7.9248-3.836-2.581-2.2022-4.226-4.5703-5.2327-7.533-0.45392-1.3359-0.59329-2.6468-0.5783-5.44 0.0236-4.402 0.54455-6.0977 2.9836-9.7123 1.347-1.9961 2.0611-2.685 4.265-4.1141 3.2292-2.094 5.397-2.8544 8.5384-2.9952 2.6226-0.11752 6.2296 0.66025 8.5088 1.8347 2.4607 1.268 5.3215 3.845 6.7603 6.0898 0.76982 1.201 1.3216 2.3408 1.3997 2.4903 1.1188 2.142 3.0976 10.94-3.1884 17.777-3.1154 3.3885-8.3173 7.0418-15.532 5.4385zm8.1119-6.7432c2.6002-1.1843 4.5302-2.9854 5.8711-5.4793 1.0198-1.8967 1.2131-2.5986 1.4011-5.09 0.27057-3.5841-0.24656-5.6061-2.1165-8.2755-1.6654-2.3774-2.2223-2.8551-4.8376-4.1499-1.9051-0.94313-2.4436-1.0602-5.101-1.1084-3.499-0.0635-5.4833 0.4772-7.7248 2.1047-3.6782 2.6707-5.0734 5.5242-5.0734 10.376 0 3.8868 0.73291 5.9943 2.9148 8.3817 1.6907 1.8499 4.6143 3.5957 6.7885 4.0538 2.1856 0.46043 5.9298 0.0739 7.8776-0.81324zm24.224-13.425-10.256-1e-3 -0.1748-13.6h33.935v13.792l-9.6046-0.1068-0.4586 21.18s-12.889-0.11665-13.147-0.0707zm-82.339 3.5988-0.074-17.034 5.9188-0.0875c4.5345-0.0671 5.9939 9e-3 6.24 0.32489 0.59331 0.76177 4.3643 4.0764 4.6884 4.0764 0.17636 0 1.1732-0.77043 2.2152-1.7121 3.0214-2.7304 3.1485-2.7679 9.3761-2.7679h5.4334l0.0566 33.92h-9.2916l-0.0339-3.92c-0.0186-2.156-0.12664-5.1737-0.24-6.7059l-0.2061-2.7859-7.2957 7.2895-3.2698-3.0607c-1.39-1.3011-3.0054-2.8606-4.2825-4.0154 0 0-0.032 0.29178-0.032 6.6384v6.56h-9.2857zm122 16.521c-8.1696-2.0884-13.018-7.7068-13.496-15.641-0.50554-8.3892 5.0037-15.616 13.417-17.599 3.5982-0.84839 6.7296-0.43668 10.657 1.4011 2.8041 1.3122 4.7153 2.94 6.5961 5.6183 3.7372 5.3215 4.0298 12.668 0.72217 18.132-1.9942 3.2942-5.2149 6.4077-8.6865 7.6903-1.6629 0.61434-7.727 0.77772-9.2105 0.3985zm5.9101-21.476c-2.7215-1.3792-7.0106-0.6165-7.931 3.6105-0.33828 1.5536 0.11396 4.0548 1.0915 4.9899 1.2818 1.2262 2.8002 1.875 4.4884 1.8523 1.5354-0.0206 2.8348-0.92208 2.9037-0.97649 1.7373-1.3722 2.2401-3.0493 2.2656-4.9176 0.0233-1.7132-0.99586-3.6352-2.8182-4.5587z"/>
   </g>
   <g id="g7" transform="translate(0 .0039623)" fill="#1a1a1a">
    <g id="g8" fill="#1a1a1a">
     <path id="path6" d="m85.657-159.85c0-5.9619-0.22415-8.8585-0.33974-9.1511-0.08072-0.2043-0.41564-0.60567-0.74975-0.93967-1.6601-1.6595-3.453-3.2814-5.1111-4.9774l-4.0395-4.1693v-6.0614h11.984l2.1051 2.1815c1.1578 1.1998 2.3712 2.2837 2.6965 2.4085 0.45693 0.17534 1.1393-0.32085 2.9999-2.1815l2.4085-2.4085h12.046v5.9277l-9.92 9.9045v18.408h-14.08zm-82.264 8.8558c-0.030955-0.20791-0.030805-33.279 1.53e-4 -33.595 0.036784-0.37498 18.545-0.28345 20.685 0.10228 3.0764 0.55458 6.2464 2.3036 8.4557 4.6654 3.2379 3.4613 4.4831 6.8096 4.4831 12.055 0 3.7259-0.9481 7.0458-2.7714 9.7044-1.3697 1.9972-4.6396 5.2335-7.052 6.3379l-1.775 0.81262-11.001 0.0386c-6.0504 0.0212-11.011-0.0334-11.025-0.1214zm16.248-10.967c0.40553-0.26572 1.1331-1.0811 1.6167-1.812 0.79085-1.195 0.87745-1.7876 0.86769-4.0722-0.0098-2.2847-0.07385-3.0663-0.64-3.9054-1.1744-1.7406-3.5503-3.0224-4.5271-3.2177-0.73421-0.14685-0.35419 13.46-0.18343 13.631 1.0157 0.29911 1.9523-0.18703 2.8661-0.62354zm20.684 11.209-0.12153-14.421c-0.04524-5.3686-0.2072-15.651 1.6263-17.119 2.3213-1.8588 3.2069-2.1476 14.066-2.1511 12.686-4e-3 12.852 0.0201 14.794 1.7947 1.9938 1.822 2.0644 2.9187 2.0797 14.186s-0.018 13.307-0.0735 17.664c-4.8037-0.0281-8.5819-0.0624-13.414-0.11342-0.0577-4.2614-0.0656-14.414-0.34637-14.65-0.27907-0.23535-2.6219-0.23535-2.6219-0.23535-0.0434 0-2.5303-0.0805-2.7908 0.20698-0.2605 0.2875-0.22564 9.8093-0.1804 14.701zm18.8-18.862-0.0287-5.3902-5.4803-0.0352-7e-3 5.4905z"/>
     <path id="path7" d="m112.26-151.12c-0.11732-0.11732-0.21332-2.1333-0.21332-4.48v-4.2667h8.7627c8.4936 0 8.7678-0.0196 8.93-0.64 0.42255-1.6158 0.0821-1.812-3.5275-2.0329-1.8616-0.11391-5.7287-0.20708-8.5934-0.20708-4.6923 0-5.223-0.0555-5.3531-0.56-0.0794-0.30799-0.12514-4.16-0.10156-8.56 0.0386-7.209 0.10398-8.1231 0.66073-9.2451 0.99371-1.4362 2.2137-2.6541 3.8343-3.357 1.7424-0.65191 2.3391-0.67791 15.56-0.67791h13.748v8.96h-17.216l-0.22442 2.72 17.421-0.1888 0.21917 0.87331c0.12057 0.48031 0.13051 4.4416 0.0223 8.8028-0.2406 9.6821-0.19113 9.531-4.0982 12.513-0.67382 0.51422-1.9144 0.56-15.175 0.56-7.9429 0-14.538-0.096-14.655-0.21332z"/>
    </g>
   </g>
   <ellipse id="path8" cx="201.75" cy="-206.59" rx="12.89" ry="12.692" fill="#fbd50e" stroke-linejoin="round" stroke-width=".8067"/>
  </g>
 </g>
</svg>